{"glyphs":{"0":{"x_min":32,"x_max":632,"ha":662,"o":"m 32 376 q 32 549 105.5 648 q 179 747 332 747 l 332 747 q 484 747 558 647.5 q 632 548 632 376 l 632 376 q 632 203 558 103.5 q 484 4 332 4 l 332 4 q 179 4 105.5 103.5 q 32 203 32 376 l 32 376 m 413 376 q 413 456 397 496.5 q 381 537 332 537 l 332 537 q 282 537 266 496.5 q 250 456 250 376 l 250 376 q 250 295 266 254.5 q 282 214 332 214 l 332 214 q 381 214 397 254.5 q 413 295 413 376 l 413 376"},"1":{"x_min":10,"x_max":349,"ha":399,"o":"m 116 523 l 10 523 l 10 731 l 349 731 l 349 0 l 116 0 l 116 523"},"2":{"x_min":25,"x_max":545,"ha":566,"o":"m 28 177 q 162 277 240 358.5 q 318 440 318 511 l 318 511 q 318 535 307.5 548 q 297 561 280 561 l 280 561 q 260 561 248.5 540.5 q 237 520 240 478 l 240 478 l 25 478 q 28 571 65.5 631 q 103 691 163 719 q 223 747 295 747 l 295 747 q 423 747 482.5 685.5 q 542 624 542 528 l 542 528 q 542 427 477.5 338.5 q 413 250 316 189 l 316 189 l 545 189 l 545 10 l 28 10 l 28 177"},"3":{"x_min":37,"x_max":564,"ha":615,"o":"m 45 502 q 48 621 114.5 684 q 181 747 303 747 l 303 747 q 382 747 438 720 q 494 693 522.5 647 q 551 601 551 543 l 551 543 q 551 473 518 433.5 q 485 394 444 380 l 444 380 l 444 376 q 564 331 564 209 l 564 209 q 564 145 534 96 q 504 47 448.5 20 q 393 -7 317 -7 l 317 -7 q 187 -7 113 55 q 39 117 37 249 l 37 249 l 253 249 q 251 213 263.5 194.5 q 276 176 307 176 l 307 176 q 325 176 337 189.5 q 349 203 349 225 l 349 225 q 349 253 330.5 267.5 q 312 282 268 282 l 268 282 l 231 282 l 231 461 l 267 461 q 335 457 335 515 l 335 515 q 335 540 324.5 552 q 314 564 298 564 l 298 564 q 261 564 261 502 l 261 502 l 45 502"},"4":{"x_min":52,"x_max":661,"ha":704,"o":"m 365 110 l 52 110 l 52 295 l 350 720 l 589 720 l 589 302 l 661 302 l 661 110 l 589 110 l 589 0 l 365 0 l 365 110 m 383 302 l 383 467 l 275 302 l 383 302"},"5":{"x_min":91,"x_max":620,"ha":660,"o":"m 584 731 l 584 536 l 294 536 l 294 452 q 313 469 343.5 479 q 374 489 412 489 l 412 489 q 480 489 527 457 q 574 425 597 371.5 q 620 318 620 253 l 620 253 q 620 133 552.5 66.5 q 485 0 367 0 l 367 0 q 281 0 218.5 30 q 156 60 123.5 113 q 91 166 93 234 l 93 234 l 309 234 q 309 218 320 204 q 331 190 356 190 l 356 190 q 381 190 393 208 q 405 226 405 257 l 405 257 q 405 286 391.5 301 q 378 316 353 316 l 353 316 q 332 316 321 306 q 310 296 310 283 l 310 283 l 94 283 l 94 731 l 584 731"},"6":{"x_min":52,"x_max":589,"ha":633,"o":"m 365 509 q 359 539 347.5 553 q 336 567 312 567 l 312 567 q 274 567 261.5 528.5 q 249 490 249 409 l 249 409 q 267 437 301 453 q 335 469 378 469 l 378 469 q 474 469 531.5 410 q 589 351 589 239 l 589 239 q 589 164 557.5 108.5 q 526 53 468 23 q 410 -7 331 -7 l 331 -7 q 174 -7 113 89.5 q 52 186 52 360 l 52 360 q 52 496 80 580 q 108 664 168.5 704 q 229 744 326 744 l 326 744 q 445 744 505.5 676 q 566 608 572 509 l 572 509 l 365 509 m 323 299 q 296 299 280 284 q 264 269 264 242 l 264 242 q 264 212 279.5 197.5 q 295 183 323 183 l 323 183 q 351 183 366.5 197.5 q 382 212 382 242 l 382 242 q 382 269 366 284 q 350 299 323 299 l 323 299"},"7":{"x_min":18,"x_max":502,"ha":512,"o":"m 502 731 l 502 568 l 274 0 l 46 0 l 276 541 l 18 541 l 18 731 l 502 731"},"8":{"x_min":48,"x_max":608,"ha":657,"o":"m 149 402 q 109 425 86.5 462.5 q 64 500 64 552 l 64 552 q 64 606 93 650 q 122 694 181.5 720.5 q 241 747 328 747 l 328 747 q 415 747 474.5 720.5 q 534 694 563 650 q 592 606 592 552 l 592 552 q 592 500 569.5 462.5 q 547 425 507 402 l 507 402 q 608 343 608 225 l 608 225 q 608 149 570 96 q 532 43 468 16 q 404 -11 328 -11 l 328 -11 q 252 -11 188 16 q 124 43 86 96 q 48 149 48 225 l 48 225 q 48 343 149 402 l 149 402 m 374 515 q 374 543 361 559.5 q 348 576 328 576 l 328 576 q 308 576 295 559.5 q 282 543 282 515 l 282 515 q 282 486 295 471 q 308 456 328 456 l 328 456 q 348 456 361 471 q 374 486 374 515 l 374 515 m 328 307 q 298 307 280.5 287.5 q 263 268 263 238 l 263 238 q 263 208 280 189 q 297 170 328 170 l 328 170 q 359 170 376 189 q 393 208 393 238 l 393 238 q 393 268 375.5 287.5 q 358 307 328 307 l 328 307"},"9":{"x_min":30,"x_max":569,"ha":597,"o":"m 254 228 q 259 199 272.5 184.5 q 286 170 310 170 l 310 170 q 347 170 358.5 207.5 q 370 245 370 328 l 370 328 q 352 300 318 284 q 284 268 241 268 l 241 268 q 146 268 88 328 q 30 388 30 501 l 30 501 q 30 576 61.5 631.5 q 93 687 151.5 717 q 210 747 288 747 l 288 747 q 446 747 507.5 654 q 569 561 569 389 l 569 389 q 569 191 508.5 92 q 448 -7 305 -7 l 305 -7 q 226 -7 169 26 q 112 59 81.5 112.5 q 51 166 47 228 l 47 228 l 254 228 m 296 438 q 323 438 339 453 q 355 468 355 495 l 355 495 q 355 525 339.5 539.5 q 324 554 296 554 l 296 554 q 268 554 252.5 539.5 q 237 525 237 495 l 237 495 q 237 468 253 453 q 269 438 296 438 l 296 438"}," ":{"x_min":0,"x_max":0,"ha":170,"o":""},"A":{"x_min":0,"x_max":773,"ha":773,"o":"m 539 0 l 504 107 l 268 107 l 233 0 l 0 0 l 259 708 l 515 708 l 773 0 l 539 0 m 322 274 l 450 274 l 386 471 l 322 274"},"B":{"x_min":50,"x_max":659,"ha":684,"o":"m 524 363 q 588 348 623.5 301.5 q 659 255 659 194 l 659 194 q 659 101 597.5 50.5 q 536 0 421 0 l 421 0 l 50 0 l 50 708 l 411 708 q 519 708 581 661 q 643 614 643 524 l 643 524 q 643 462 610.5 419.5 q 578 377 524 363 l 524 363 m 272 532 l 272 432 l 358 432 q 388 432 402.5 444 q 417 456 417 481 l 417 481 q 417 507 402.5 519.5 q 388 532 358 532 l 358 532 l 272 532 m 373 178 q 403 178 417.5 189.5 q 432 201 432 227 l 432 227 q 432 278 373 278 l 373 278 l 272 278 l 272 178 l 373 178"},"C":{"x_min":30,"x_max":723,"ha":753,"o":"m 30 355 q 30 460 72.5 542 q 115 624 194 669.5 q 273 715 380 715 l 380 715 q 472 715 544.5 680.5 q 617 646 662.5 583 q 708 520 723 436 l 723 436 l 489 436 q 473 471 443.5 490.5 q 414 510 376 510 l 376 510 q 320 510 287.5 468 q 255 426 255 355 l 255 355 q 255 284 287.5 242 q 320 200 376 200 l 376 200 q 414 200 443.5 219.5 q 473 239 489 274 l 489 274 l 723 274 q 708 190 662.5 127 q 617 64 544.5 29.5 q 472 -5 380 -5 l 380 -5 q 273 -5 194 40.5 q 115 86 72.5 168 q 30 250 30 355 l 30 355"},"D":{"x_min":50,"x_max":713,"ha":743,"o":"m 345 708 q 456 708 539.5 663 q 623 618 668 538 q 713 458 713 356 l 713 356 q 713 255 668 174 q 623 93 539.5 46.5 q 456 0 345 0 l 345 0 l 50 0 l 50 708 l 345 708 m 325 198 q 400 198 444 239 q 488 280 488 356 l 488 356 q 488 432 444 473 q 400 514 325 514 l 325 514 l 272 514 l 272 198 l 325 198"},"E":{"x_min":50,"x_max":522,"ha":556,"o":"m 522 531 l 272 531 l 272 444 l 492 444 l 492 277 l 272 277 l 272 177 l 522 177 l 522 0 l 50 0 l 50 708 l 522 708 l 522 531"},"F":{"x_min":50,"x_max":550,"ha":575,"o":"m 50 708 l 550 708 l 550 532 l 272 532 l 272 434 l 472 434 l 472 267 l 272 267 l 272 0 l 50 0 l 50 708"},"G":{"x_min":30,"x_max":722,"ha":752,"o":"m 718 466 l 484 466 q 471 487 447 498.5 q 423 510 389 510 l 389 510 q 325 510 290 468.5 q 255 427 255 355 l 255 355 q 255 272 294 231 q 333 190 414 190 l 414 190 q 491 190 538 252 l 538 252 l 361 252 l 361 409 l 722 409 l 722 187 q 676 108 595 51.5 q 514 -5 390 -5 l 390 -5 q 280 -5 198.5 40.5 q 117 86 73.5 168 q 30 250 30 355 l 30 355 q 30 460 73.5 542 q 117 624 198 669.5 q 279 715 388 715 l 388 715 q 527 715 614.5 648 q 702 581 718 466 l 718 466"},"H":{"x_min":50,"x_max":705,"ha":755,"o":"m 483 708 l 705 708 l 705 0 l 483 0 l 483 276 l 272 276 l 272 0 l 50 0 l 50 708 l 272 708 l 272 453 l 483 453 l 483 708"},"I":{"x_min":50,"x_max":272,"ha":322,"o":"m 50 708 l 272 708 l 272 0 l 50 0 l 50 708"},"J":{"x_min":10,"x_max":544,"ha":590,"o":"m 323 708 l 544 708 l 544 251 q 544 124 477.5 58.5 q 411 -7 291 -7 l 291 -7 q 162 -7 86 64 q 10 135 10 271 l 10 271 l 229 271 q 229 228 243 210.5 q 257 193 281 193 l 281 193 q 301 193 312 206 q 323 219 323 251 l 323 251 l 323 708"},"K":{"x_min":50,"x_max":742,"ha":755,"o":"m 742 0 l 478 0 l 272 307 l 272 0 l 50 0 l 50 708 l 272 708 l 272 410 l 475 708 l 726 708 l 482 369 l 742 0"},"L":{"x_min":50,"x_max":486,"ha":506,"o":"m 272 708 l 272 168 l 486 168 l 486 0 l 50 0 l 50 708 l 272 708"},"M":{"x_min":50,"x_max":901,"ha":951,"o":"m 630 708 l 901 708 l 901 0 l 680 0 l 680 353 l 571 0 l 381 0 l 272 353 l 272 0 l 50 0 l 50 708 l 322 708 l 478 283 l 630 708"},"N":{"x_min":50,"x_max":729,"ha":779,"o":"m 729 708 l 729 0 l 507 0 l 272 356 l 272 0 l 50 0 l 50 708 l 272 708 l 507 346 l 507 708 l 729 708"},"O":{"x_min":30,"x_max":758,"ha":788,"o":"m 395 -7 q 295 -7 211.5 40 q 128 87 79 170 q 30 253 30 357 l 30 357 q 30 461 79 544 q 128 627 211.5 673.5 q 295 720 395 720 l 395 720 q 495 720 578 673.5 q 661 627 709.5 544 q 758 461 758 357 l 758 357 q 758 253 709.5 170 q 661 87 577.5 40 q 494 -7 395 -7 l 395 -7 m 395 200 q 461 200 497 242.5 q 533 285 533 357 l 533 357 q 533 430 497 472.5 q 461 515 395 515 l 395 515 q 328 515 292 472.5 q 256 430 256 357 l 256 357 q 256 285 292 242.5 q 328 200 395 200 l 395 200"},"P":{"x_min":50,"x_max":629,"ha":649,"o":"m 629 465 q 629 398 598 343.5 q 567 289 506.5 257 q 446 225 360 225 l 360 225 l 272 225 l 272 0 l 50 0 l 50 708 l 360 708 q 490 708 559.5 642 q 629 576 629 465 l 629 465 m 335 400 q 404 400 404 465 l 404 465 q 404 530 335 530 l 335 530 l 272 530 l 272 400 l 335 400"},"Q":{"x_min":30,"x_max":778,"ha":788,"o":"m 778 -115 l 516 -115 l 448 -3 q 425 -7 395 -7 l 395 -7 q 295 -7 211.5 40 q 128 87 79 170 q 30 253 30 357 l 30 357 q 30 461 79 544 q 128 627 211.5 673.5 q 295 720 395 720 l 395 720 q 495 720 578 673.5 q 661 627 709.5 544 q 758 461 758 357 l 758 357 q 758 272 725 200.5 q 692 129 634 79 l 634 79 l 778 -115 m 256 357 q 256 285 292 242.5 q 328 200 395 200 l 395 200 q 461 200 497 242.5 q 533 285 533 357 l 533 357 q 533 430 497 472.5 q 461 515 395 515 l 395 515 q 328 515 292 472.5 q 256 430 256 357 l 256 357"},"R":{"x_min":50,"x_max":650,"ha":670,"o":"m 650 0 l 406 0 l 273 254 l 272 254 l 272 0 l 50 0 l 50 708 l 380 708 q 466 708 527 677.5 q 588 647 618.5 594.5 q 649 542 649 476 l 649 476 q 649 405 609.5 350 q 570 295 496 271 l 496 271 l 650 0 m 272 522 l 272 402 l 360 402 q 392 402 408 416.5 q 424 431 424 462 l 424 462 q 424 490 407.5 506 q 391 522 360 522 l 360 522 l 272 522"},"S":{"x_min":28,"x_max":597,"ha":625,"o":"m 327 -7 q 200 -7 117.5 52.5 q 35 112 28 227 l 28 227 l 264 227 q 269 166 318 166 l 318 166 q 336 166 348.5 174.5 q 361 183 361 201 l 361 201 q 361 226 334 241.5 q 307 257 250 277 l 250 277 q 182 301 137.5 324 q 93 347 61 391 q 29 435 30 504 l 30 504 q 30 573 65.5 621.5 q 101 670 162.5 695 q 224 720 301 720 l 301 720 q 431 720 507.5 660 q 584 600 588 491 l 588 491 l 349 491 q 348 521 334 534 q 320 547 300 547 l 300 547 q 286 547 277 537.5 q 268 528 268 511 l 268 511 q 268 487 294.5 471.5 q 321 456 379 434 l 379 434 q 446 409 489.5 386 q 533 363 565 322 q 597 281 597 219 l 597 219 q 597 154 565 102.5 q 533 51 472 22 q 411 -7 327 -7 l 327 -7"},"T":{"x_min":10,"x_max":606,"ha":616,"o":"m 10 708 l 606 708 l 606 532 l 418 532 l 418 0 l 196 0 l 196 532 l 10 532 l 10 708"},"U":{"x_min":46,"x_max":673,"ha":719,"o":"m 46 708 l 267 708 l 267 309 q 267 260 288.5 231.5 q 310 203 358 203 l 358 203 q 406 203 429 231.5 q 452 260 452 309 l 452 309 l 452 708 l 673 708 l 673 309 q 673 208 631 136.5 q 589 65 516 29 q 443 -7 353 -7 l 353 -7 q 263 -7 193.5 29 q 124 65 85 136 q 46 207 46 309 l 46 309 l 46 708"},"V":{"x_min":0,"x_max":763,"ha":763,"o":"m 527 708 l 763 708 l 525 0 l 238 0 l 0 708 l 236 708 l 382 221 l 527 708"},"W":{"x_min":30,"x_max":1070,"ha":1100,"o":"m 831 708 l 1070 708 l 908 0 l 632 0 l 550 402 l 468 0 l 192 0 l 30 708 l 269 708 l 333 262 l 429 708 l 671 708 l 767 262 l 831 708"},"X":{"x_min":0,"x_max":764,"ha":764,"o":"m 764 0 l 501 0 l 371 184 l 263 0 l 10 0 l 243 365 l 0 708 l 263 708 l 388 531 l 492 708 l 745 708 l 516 350 l 764 0"},"Y":{"x_min":0,"x_max":730,"ha":730,"o":"m 480 708 l 730 708 l 476 215 l 476 0 l 254 0 l 254 215 l 0 708 l 254 708 l 367 457 l 480 708"},"Z":{"x_min":50,"x_max":580,"ha":630,"o":"m 580 541 l 296 177 l 580 177 l 580 0 l 50 0 l 50 167 l 330 532 l 50 532 l 50 708 l 580 708 l 580 541"},"a":{"x_min":20,"x_max":630,"ha":680,"o":"m 20 282 q 20 371 50.5 436.5 q 81 502 134 536.5 q 187 571 253 571 l 253 571 q 308 571 348 548.5 q 388 526 409 487 l 409 487 l 409 564 l 630 564 l 630 0 l 409 0 l 409 77 q 388 38 348 15.5 q 308 -7 253 -7 l 253 -7 q 187 -7 134 27.5 q 81 62 50.5 127.5 q 20 193 20 282 l 20 282 m 409 282 q 409 327 386 352 q 363 377 327 377 l 327 377 q 291 377 268 352 q 245 327 245 282 l 245 282 q 245 237 268 212 q 291 187 327 187 l 327 187 q 363 187 386 212 q 409 237 409 282 l 409 282"},"b":{"x_min":50,"x_max":660,"ha":680,"o":"m 272 487 q 293 526 332.5 548.5 q 372 571 427 571 l 427 571 q 493 571 546 536.5 q 599 502 629.5 436.5 q 660 371 660 282 l 660 282 q 660 193 629.5 127.5 q 599 62 546 27.5 q 493 -7 427 -7 l 427 -7 q 372 -7 332.5 15.5 q 293 38 272 77 l 272 77 l 272 0 l 50 0 l 50 740 l 272 740 l 272 487 m 435 282 q 435 327 412 352 q 389 377 353 377 l 353 377 q 317 377 294 352 q 271 327 271 282 l 271 282 q 271 237 294 212 q 317 187 353 187 l 353 187 q 389 187 412 212 q 435 237 435 282 l 435 282"},"c":{"x_min":20,"x_max":589,"ha":609,"o":"m 20 282 q 20 370 56.5 435.5 q 93 501 158.5 536 q 224 571 308 571 l 308 571 q 418 571 493.5 509 q 569 447 589 337 l 589 337 l 354 337 q 341 381 303 381 l 303 381 q 276 381 260.5 356 q 245 331 245 282 l 245 282 q 245 233 260.5 208 q 276 183 303 183 l 303 183 q 341 183 354 227 l 354 227 l 589 227 q 569 117 493.5 55 q 418 -7 308 -7 l 308 -7 q 224 -7 158.5 28 q 93 63 56.5 128.5 q 20 194 20 282 l 20 282"},"d":{"x_min":20,"x_max":630,"ha":680,"o":"m 20 282 q 20 371 50.5 436.5 q 81 502 134 536.5 q 187 571 253 571 l 253 571 q 308 571 347.5 548.5 q 387 526 408 487 l 408 487 l 408 740 l 630 740 l 630 0 l 408 0 l 408 77 q 387 38 347.5 15.5 q 308 -7 253 -7 l 253 -7 q 187 -7 134 27.5 q 81 62 50.5 127.5 q 20 193 20 282 l 20 282 m 409 282 q 409 327 386 352 q 363 377 327 377 l 327 377 q 291 377 268 352 q 245 327 245 282 l 245 282 q 245 237 268 212 q 291 187 327 187 l 327 187 q 363 187 386 212 q 409 237 409 282 l 409 282"},"e":{"x_min":20,"x_max":596,"ha":616,"o":"m 596 287 q 596 264 593 243 l 593 243 l 236 243 q 241 170 297 170 l 297 170 q 333 170 349 203 l 349 203 l 584 203 q 572 143 533.5 95.5 q 495 48 436.5 20.5 q 378 -7 308 -7 l 308 -7 q 224 -7 158.5 28 q 93 63 56.5 128.5 q 20 194 20 282 l 20 282 q 20 370 56.5 435.5 q 93 501 158.5 536 q 224 571 308 571 l 308 571 q 392 571 457.5 536.5 q 523 502 559.5 438 q 596 374 596 287 l 596 287 m 239 340 l 371 340 q 371 368 353 382.5 q 335 397 308 397 l 308 397 q 249 397 239 340 l 239 340"},"f":{"x_min":10,"x_max":375,"ha":385,"o":"m 375 604 q 357 606 350 606 l 350 606 q 325 606 312 596.5 q 299 587 294 564 l 294 564 l 375 564 l 375 379 l 292 379 l 292 0 l 70 0 l 70 379 l 10 379 l 10 564 l 70 564 q 72 674 139.5 734.5 q 207 795 329 795 l 329 795 q 343 795 375 793 l 375 793 l 375 604"},"g":{"x_min":20,"x_max":630,"ha":680,"o":"m 253 571 q 308 571 348 548.5 q 388 526 409 487 l 409 487 l 409 564 l 630 564 l 630 10 q 630 -69 601 -134 q 572 -199 507.5 -238 q 443 -277 342 -277 l 342 -277 q 206 -277 126.5 -213.5 q 47 -150 36 -41 l 36 -41 l 254 -41 q 263 -85 326 -85 l 326 -85 q 365 -85 387 -65 q 409 -45 409 10 l 409 10 l 409 77 q 388 38 348 15.5 q 308 -7 253 -7 l 253 -7 q 187 -7 134 27.5 q 81 62 50.5 127.5 q 20 193 20 282 l 20 282 q 20 371 50.5 436.5 q 81 502 134 536.5 q 187 571 253 571 l 253 571 m 409 282 q 409 327 386 352 q 363 377 327 377 l 327 377 q 291 377 268 352 q 245 327 245 282 l 245 282 q 245 237 268 212 q 291 187 327 187 l 327 187 q 363 187 386 212 q 409 237 409 282 l 409 282"},"h":{"x_min":50,"x_max":651,"ha":697,"o":"m 445 568 q 542 568 596.5 503 q 651 438 651 327 l 651 327 l 651 0 l 430 0 l 430 299 q 430 339 408.5 362.5 q 387 386 351 386 l 351 386 q 314 386 293 362.5 q 272 339 272 299 l 272 299 l 272 0 l 50 0 l 50 740 l 272 740 l 272 478 q 298 518 341.5 543 q 385 568 445 568 l 445 568"},"i":{"x_min":34,"x_max":289,"ha":322,"o":"m 162 609 q 104 609 69 640 q 34 671 34 718 l 34 718 q 34 766 69 797.5 q 104 829 162 829 l 162 829 q 219 829 254 797.5 q 289 766 289 718 l 289 718 q 289 671 254 640 q 219 609 162 609 l 162 609 m 50 564 l 272 564 l 272 0 l 50 0 l 50 564"},"j":{"x_min":-34,"x_max":287,"ha":320,"o":"m 160 609 q 102 609 67 640 q 32 671 32 718 l 32 718 q 32 766 67 797.5 q 102 829 160 829 l 160 829 q 217 829 252 797.5 q 287 766 287 718 l 287 718 q 287 671 252 640 q 217 609 160 609 l 160 609 m 272 564 l 272 -39 q 272 -270 40 -270 l 40 -270 l -34 -270 l -34 -81 l 9 -81 q 31 -81 40.5 -72 q 50 -63 50 -43 l 50 -43 l 50 564 l 272 564"},"k":{"x_min":50,"x_max":676,"ha":676,"o":"m 676 0 l 411 0 l 272 225 l 272 0 l 50 0 l 50 740 l 272 740 l 272 353 l 413 564 l 671 564 l 460 280 l 676 0"},"l":{"x_min":50,"x_max":272,"ha":322,"o":"m 50 740 l 272 740 l 272 0 l 50 0 l 50 740"},"m":{"x_min":50,"x_max":1030,"ha":1076,"o":"m 803 568 q 911 568 970.5 503 q 1030 438 1030 327 l 1030 327 l 1030 0 l 809 0 l 809 299 q 809 335 787.5 355.5 q 766 376 730 376 l 730 376 q 693 376 672 355.5 q 651 335 651 299 l 651 299 l 651 0 l 430 0 l 430 299 q 430 335 408.5 355.5 q 387 376 351 376 l 351 376 q 314 376 293 355.5 q 272 335 272 299 l 272 299 l 272 0 l 50 0 l 50 564 l 272 564 l 272 488 q 296 524 337.5 546 q 379 568 435 568 l 435 568 q 496 568 543 541.5 q 590 515 618 467 l 618 467 q 649 511 697 539.5 q 745 568 803 568 l 803 568"},"n":{"x_min":50,"x_max":651,"ha":697,"o":"m 445 568 q 542 568 596.5 503 q 651 438 651 327 l 651 327 l 651 0 l 430 0 l 430 299 q 430 339 408.5 362.5 q 387 386 351 386 l 351 386 q 314 386 293 362.5 q 272 339 272 299 l 272 299 l 272 0 l 50 0 l 50 564 l 272 564 l 272 478 q 298 518 341.5 543 q 385 568 445 568 l 445 568"},"o":{"x_min":20,"x_max":616,"ha":636,"o":"m 318 -7 q 233 -7 165 28 q 97 63 58.5 128.5 q 20 194 20 282 l 20 282 q 20 370 58.5 435.5 q 97 501 165 536 q 233 571 318 571 l 318 571 q 403 571 471 536 q 539 501 577.5 435.5 q 616 370 616 282 l 616 282 q 616 194 577.5 128.5 q 539 63 471 28 q 403 -7 318 -7 l 318 -7 m 318 185 q 349 185 370 209.5 q 391 234 391 282 l 391 282 q 391 330 370 354.5 q 349 379 318 379 l 318 379 q 287 379 266 354.5 q 245 330 245 282 l 245 282 q 245 234 265.5 209.5 q 286 185 318 185 l 318 185"},"p":{"x_min":50,"x_max":660,"ha":680,"o":"m 272 487 q 293 526 332.5 548.5 q 372 571 427 571 l 427 571 q 493 571 546 536.5 q 599 502 629.5 436.5 q 660 371 660 282 l 660 282 q 660 193 629.5 127.5 q 599 62 546 27.5 q 493 -7 427 -7 l 427 -7 q 372 -7 332.5 15.5 q 293 38 272 77 l 272 77 l 272 -270 l 50 -270 l 50 564 l 272 564 l 272 487 m 435 282 q 435 327 412 352 q 389 377 353 377 l 353 377 q 317 377 294 352 q 271 327 271 282 l 271 282 q 271 237 294 212 q 317 187 353 187 l 353 187 q 389 187 412 212 q 435 237 435 282 l 435 282"},"q":{"x_min":20,"x_max":630,"ha":680,"o":"m 20 278 q 20 361 54 427 q 88 493 145.5 530.5 q 203 568 269 568 l 269 568 q 314 568 348 555.5 q 382 543 409 514 l 409 514 l 409 564 l 630 564 l 630 -270 l 409 -270 l 409 62 q 379 27 345.5 10.5 q 312 -6 269 -6 l 269 -6 q 202 -6 145 30 q 88 66 54 130.5 q 20 195 20 278 l 20 278 m 409 282 q 409 331 383.5 353.5 q 358 376 327 376 l 327 376 q 297 376 271 351.5 q 245 327 245 278 l 245 278 q 245 230 270.5 208.5 q 296 187 327 187 l 327 187 q 358 187 383.5 210 q 409 233 409 282 l 409 282"},"r":{"x_min":50,"x_max":457,"ha":467,"o":"m 272 460 q 306 509 355 538.5 q 404 568 457 568 l 457 568 l 457 331 l 394 331 q 331 331 301.5 309 q 272 287 272 231 l 272 231 l 272 0 l 50 0 l 50 564 l 272 564 l 272 460"},"s":{"x_min":21,"x_max":542,"ha":579,"o":"m 301 -7 q 221 -7 159.5 19 q 98 45 62 91 q 26 137 21 195 l 21 195 l 234 195 q 238 170 255.5 158 q 273 146 300 146 l 300 146 q 317 146 327 153.5 q 337 161 337 172 l 337 172 q 337 191 316 199 q 295 207 245 217 l 245 217 q 184 229 144.5 243 q 105 257 75.5 291 q 46 325 46 385 l 46 385 q 46 437 73.5 479.5 q 101 522 155 546.5 q 209 571 286 571 l 286 571 q 400 571 464.5 515 q 529 459 542 369 l 542 369 l 345 369 q 340 392 324 404.5 q 308 417 281 417 l 281 417 q 264 417 255 410.5 q 246 404 246 391 l 246 391 q 246 374 267 365.5 q 288 357 334 348 l 334 348 q 395 336 437 321 q 479 306 510 269.5 q 541 233 541 169 l 541 169 q 541 119 512 79 q 483 39 428.5 16 q 374 -7 301 -7 l 301 -7"},"t":{"x_min":15,"x_max":401,"ha":436,"o":"m 348 189 l 401 189 l 401 0 l 317 0 q 85 0 85 231 l 85 231 l 85 379 l 15 379 l 15 564 l 85 564 l 85 700 l 307 700 l 307 564 l 399 564 l 399 379 l 307 379 l 307 227 q 307 207 316.5 198 q 326 189 348 189 l 348 189"},"u":{"x_min":46,"x_max":647,"ha":697,"o":"m 425 564 l 647 564 l 647 0 l 425 0 l 425 86 q 399 46 355.5 21 q 312 -4 252 -4 l 252 -4 q 155 -4 100.5 61 q 46 126 46 237 l 46 237 l 46 564 l 267 564 l 267 265 q 267 225 288.5 201.5 q 310 178 346 178 l 346 178 q 383 178 404 201.5 q 425 225 425 265 l 425 265 l 425 564"},"v":{"x_min":9,"x_max":662,"ha":671,"o":"m 245 564 l 336 211 l 426 564 l 662 564 l 474 0 l 197 0 l 9 564 l 245 564"},"w":{"x_min":-1,"x_max":906,"ha":903,"o":"m 701 564 l 906 564 l 772 0 l 522 0 l 454 318 l 382 0 l 132 0 l -1 564 l 219 564 l 266 221 l 339 564 l 576 564 l 653 217 l 701 564"},"x":{"x_min":0,"x_max":668,"ha":668,"o":"m 668 0 l 420 0 l 325 127 l 254 0 l 10 0 l 199 297 l 0 564 l 248 564 l 343 436 l 415 564 l 659 564 l 464 274 l 668 0"},"y":{"x_min":-10,"x_max":687,"ha":677,"o":"m 442 564 l 687 564 l 326 -270 l 83 -270 l 225 28 l -10 564 l 237 564 l 343 278 l 442 564"},"z":{"x_min":20,"x_max":498,"ha":518,"o":"m 488 390 l 263 184 l 498 184 l 498 0 l 20 0 l 20 174 l 235 380 l 23 380 l 23 564 l 488 564 l 488 390"},".":{"x_min":32,"x_max":287,"ha":319,"o":"m 160 -8 q 102 -8 67 23 q 32 54 32 101 l 32 101 q 32 149 67 180.5 q 102 212 160 212 l 160 212 q 217 212 252 180.5 q 287 149 287 101 l 287 101 q 287 54 252 23 q 217 -8 160 -8 l 160 -8"},",":{"x_min":45,"x_max":288,"ha":342,"o":"m 92 177 l 288 177 l 185 -120 l 45 -120 l 92 177"},"!":{"x_min":100,"x_max":355,"ha":455,"o":"m 107 755 l 349 755 l 323 281 l 133 281 l 107 755 m 228 -8 q 170 -8 135 23 q 100 54 100 101 l 100 101 q 100 149 135 180.5 q 170 212 228 212 l 228 212 q 285 212 320 180.5 q 355 149 355 101 l 355 101 q 355 54 320 23 q 285 -8 228 -8 l 228 -8"},"?":{"x_min":15,"x_max":518,"ha":538,"o":"m 272 773 q 383 773 450.5 717.5 q 518 662 518 555 l 518 555 q 518 467 458.5 413 q 399 359 303 357 l 303 357 l 297 286 l 101 286 l 95 498 l 179 498 q 238 498 269.5 511 q 301 524 301 553 l 301 553 q 301 572 291.5 582.5 q 282 593 266 593 l 266 593 q 246 593 236.5 580.5 q 227 568 227 548 l 227 548 l 18 548 q 15 610 42.5 661 q 70 712 128 742.5 q 186 773 272 773 l 272 773 m 202 -8 q 144 -8 109 23 q 74 54 74 101 l 74 101 q 74 149 109 180.5 q 144 212 202 212 l 202 212 q 259 212 294 180.5 q 329 149 329 101 l 329 101 q 329 54 294 23 q 259 -8 202 -8 l 202 -8"},"-":{"x_min":20,"x_max":486,"ha":576,"o":"m 20 433 l 486 433 l 486 250 l 20 250 l 20 433"},"_":{"x_min":49,"x_max":724,"ha":764,"o":"m 49 -42 l 724 -42 l 724 -258 l 49 -258 l 49 -42"}}}
